<?xml version="1.0" encoding="utf-8"?>
<!-- Generator: Adobe Illustrator 26.0.0, SVG Export Plug-In . SVG Version: 6.00 Build 0)  -->
<svg version="1.1" id="Layer_1" xmlns="http://www.w3.org/2000/svg" xmlns:xlink="http://www.w3.org/1999/xlink" x="0px" y="0px"
	 viewBox="0 0 5000 3000" style="enable-background:new 0 0 5000 3000;" xml:space="preserve">
<style type="text/css">
	.st0{clip-path:url(#SVGID_00000008828624099457555580000017415166886042423724_);}
	.st1{fill:#FFFFFF;}
	
		.st2{clip-path:url(#SVGID_00000008828624099457555580000017415166886042423724_);fill:url(#SVGID_00000075134449944456789870000002717396883850388637_);}
	.st3{fill:url(#SVGID_00000067926704625869240370000010344431269251476627_);}
	.st4{fill:url(#SVGID_00000148632419621129716710000010669079568360285833_);}
	.st5{fill:url(#SVGID_00000018917436657409945980000014429859966722595981_);}
	.st6{fill:url(#SVGID_00000147904032385068175510000007760147281278750613_);}
	.st7{fill:url(#SVGID_00000098213639404037039020000007315660798178715310_);}
	.st8{fill:url(#SVGID_00000094601256007080975910000015191108773036332697_);}
	.st9{fill:url(#SVGID_00000155120980802667601470000014501674768776877474_);}
	.st10{fill:url(#SVGID_00000121261207924683795330000002726782006880392637_);}
</style>
<g>
	<defs>
		<rect id="SVGID_1_" width="5000" height="3000"/>
	</defs>
	<clipPath id="SVGID_00000179641127385985061600000000741052806491622065_">
		<use xlink:href="#SVGID_1_"  style="overflow:visible;"/>
	</clipPath>
	<g style="clip-path:url(#SVGID_00000179641127385985061600000000741052806491622065_);">
		<g>
			<g>
				<circle class="st1" cx="1025.5" cy="2203.13" r="8.48"/>
				<circle class="st1" cx="1120.84" cy="2203.13" r="8.48"/>
				<circle class="st1" cx="1216.18" cy="2203.13" r="8.48"/>
				<circle class="st1" cx="1311.52" cy="2203.13" r="8.48"/>
				<circle class="st1" cx="1406.86" cy="2203.13" r="8.48"/>
				<circle class="st1" cx="1502.2" cy="2203.13" r="8.48"/>
			</g>
			<g>
				
					<ellipse transform="matrix(0.9247 -0.3807 0.3807 0.9247 -794.609 562.8754)" class="st1" cx="1025.5" cy="2290.01" rx="8.48" ry="8.48"/>
				
					<ellipse transform="matrix(0.8448 -0.5351 0.5351 0.8448 -1051.4218 955.2051)" class="st1" cx="1120.84" cy="2290.01" rx="8.48" ry="8.48"/>
				
					<ellipse transform="matrix(0.2306 -0.9731 0.9731 0.2306 -1292.5568 2945.3621)" class="st1" cx="1216.18" cy="2290.01" rx="8.48" ry="8.48"/>
				
					<ellipse transform="matrix(0.2306 -0.9731 0.9731 0.2306 -1219.2025 3038.1309)" class="st1" cx="1311.52" cy="2290.01" rx="8.48" ry="8.48"/>
				
					<ellipse transform="matrix(0.9645 -0.2641 0.2641 0.9645 -554.7642 452.7742)" class="st1" cx="1406.86" cy="2290.01" rx="8.48" ry="8.48"/>
				
					<ellipse transform="matrix(0.4463 -0.8949 0.8949 0.4463 -1217.5367 2612.1912)" class="st1" cx="1502.2" cy="2290.01" rx="8.48" ry="8.48"/>
			</g>
		</g>
		<g>
			<g>
				
					<ellipse transform="matrix(0.7071 -0.7071 0.7071 0.7071 414.8951 2489.23)" class="st1" cx="3212.21" cy="743.79" rx="8.48" ry="8.48"/>
				
					<ellipse transform="matrix(0.7071 -0.7071 0.7071 0.7071 442.8191 2556.6443)" class="st1" cx="3307.55" cy="743.79" rx="8.48" ry="8.48"/>
				
					<ellipse transform="matrix(0.1602 -0.9871 0.9871 0.1602 2123.6213 3983.6011)" class="st1" cx="3402.89" cy="743.79" rx="8.48" ry="8.48"/>
				
					<ellipse transform="matrix(0.2298 -0.9732 0.9732 0.2298 1970.6093 3977.5532)" class="st1" cx="3498.23" cy="743.79" rx="8.48" ry="8.48"/>
				
					<ellipse transform="matrix(0.7071 -0.7071 0.7071 0.7071 526.5909 2758.8875)" class="st1" cx="3593.57" cy="743.79" rx="8.48" ry="8.48"/>
				
					<ellipse transform="matrix(0.7071 -0.7071 0.7071 0.7071 554.5149 2826.3018)" class="st1" cx="3688.91" cy="743.79" rx="8.48" ry="8.48"/>
			</g>
			<g>
				<circle class="st1" cx="3212.21" cy="830.68" r="8.48"/>
				<circle class="st1" cx="3307.55" cy="830.68" r="8.48"/>
				<circle class="st1" cx="3402.89" cy="830.68" r="8.48"/>
				<circle class="st1" cx="3498.23" cy="830.68" r="8.48"/>
				<circle class="st1" cx="3593.57" cy="830.68" r="8.48"/>
				<circle class="st1" cx="3688.91" cy="830.68" r="8.48"/>
			</g>
		</g>
		<g>
			<g>
				
					<ellipse transform="matrix(0.2298 -0.9732 0.9732 0.2298 1654.1398 6222.6128)" class="st1" cx="4758.37" cy="2066.26" rx="8.48" ry="8.48"/>
				
					<ellipse transform="matrix(0.2298 -0.9732 0.9732 0.2298 1561.3519 6296.0469)" class="st1" cx="4758.37" cy="2161.6" rx="8.48" ry="8.48"/>
				
					<ellipse transform="matrix(0.7071 -0.7071 0.7071 0.7071 -202.201 4025.7168)" class="st1" cx="4758.37" cy="2256.94" rx="8.48" ry="8.48"/>
				
					<ellipse transform="matrix(0.1602 -0.9871 0.9871 0.1602 1674.2642 6672.4106)" class="st1" cx="4758.37" cy="2352.27" rx="8.48" ry="8.48"/>
				
					<ellipse transform="matrix(0.1602 -0.9871 0.9871 0.1602 1580.1569 6752.4775)" class="st1" cx="4758.37" cy="2447.61" rx="8.48" ry="8.48"/>
				
					<ellipse transform="matrix(0.2289 -0.9734 0.9734 0.2289 1193.6571 6592.8291)" class="st1" cx="4758.37" cy="2542.95" rx="8.48" ry="8.48"/>
			</g>
			<g>
				<circle class="st1" cx="4671.48" cy="2066.26" r="8.48"/>
				<circle class="st1" cx="4671.48" cy="2161.6" r="8.48"/>
				<circle class="st1" cx="4671.48" cy="2256.94" r="8.48"/>
				<circle class="st1" cx="4671.48" cy="2352.27" r="8.48"/>
				<circle class="st1" cx="4671.48" cy="2447.61" r="8.48"/>
				<circle class="st1" cx="4671.48" cy="2542.95" r="8.48"/>
			</g>
		</g>
		<g>
			<path class="st1" d="M1640.96,954.51c-19.64,0-28.64-16.23-36.58-30.54c-7.78-14.02-13.16-22.53-22.32-22.53
				c-9.15,0-14.54,8.51-22.32,22.53c-7.94,14.32-16.95,30.54-36.58,30.54c-19.63,0-28.64-16.23-36.58-30.54
				c-7.78-14.02-13.16-22.53-22.32-22.53c-9.15,0-14.54,8.51-22.32,22.53c-7.94,14.32-16.95,30.54-36.58,30.54
				c-19.63,0-28.64-16.23-36.58-30.54c-7.78-14.02-13.16-22.53-22.31-22.53c-4.42,0-8-3.28-8-7.32s3.58-7.32,8-7.32
				c19.63,0,28.64,16.23,36.58,30.54c7.78,14.02,13.16,22.53,22.31,22.53c9.15,0,14.54-8.51,22.32-22.53
				c7.94-14.32,16.95-30.54,36.58-30.54c19.64,0,28.64,16.23,36.58,30.54c7.78,14.02,13.16,22.53,22.32,22.53
				c9.15,0,14.54-8.51,22.32-22.53c7.94-14.32,16.95-30.54,36.58-30.54c19.64,0,28.64,16.23,36.58,30.54
				c7.78,14.02,13.16,22.53,22.32,22.53c4.42,0,8,3.28,8,7.32C1648.96,951.23,1645.38,954.51,1640.96,954.51z"/>
		</g>
		<g>
			<path class="st1" d="M3601.57,2108.59c-19.64,0-28.64-16.23-36.58-30.54c-7.78-14.02-13.16-22.53-22.32-22.53
				s-14.54,8.51-22.32,22.53c-7.94,14.32-16.95,30.54-36.58,30.54c-19.63,0-28.64-16.23-36.58-30.54
				c-7.78-14.02-13.16-22.53-22.32-22.53c-9.15,0-14.54,8.51-22.32,22.53c-7.94,14.32-16.95,30.54-36.58,30.54
				c-19.63,0-28.64-16.23-36.58-30.54c-7.78-14.02-13.16-22.53-22.31-22.53c-4.42,0-8-3.28-8-7.32c0-4.04,3.58-7.32,8-7.32
				c19.63,0,28.64,16.23,36.58,30.54c7.78,14.02,13.16,22.53,22.31,22.53c9.15,0,14.54-8.51,22.32-22.53
				c7.94-14.32,16.95-30.54,36.58-30.54c19.64,0,28.64,16.23,36.58,30.54c7.78,14.02,13.16,22.53,22.32,22.53
				c9.15,0,14.54-8.51,22.32-22.53c7.94-14.32,16.95-30.54,36.58-30.54c19.64,0,28.64,16.23,36.58,30.54
				c7.78,14.02,13.16,22.53,22.32,22.53c4.42,0,8,3.28,8,7.32C3609.57,2105.32,3605.99,2108.59,3601.57,2108.59z"/>
		</g>
		<g>
			<path class="st1" d="M4191.32,1333.64c-12.99,0-18.94-10.73-24.19-20.2c-5.14-9.27-8.71-14.9-14.76-14.9s-9.61,5.63-14.76,14.9
				c-5.25,9.47-11.21,20.2-24.19,20.2c-12.98,0-18.94-10.73-24.19-20.2c-5.14-9.27-8.7-14.9-14.76-14.9
				c-6.05,0-9.61,5.63-14.76,14.9c-5.25,9.47-11.21,20.2-24.19,20.2c-12.98,0-18.94-10.73-24.19-20.2
				c-5.14-9.27-8.7-14.9-14.76-14.9c-2.92,0-5.29-2.17-5.29-4.84s2.37-4.84,5.29-4.84c12.98,0,18.94,10.73,24.19,20.2
				c5.14,9.27,8.7,14.9,14.76,14.9c6.05,0,9.61-5.63,14.76-14.9c5.25-9.47,11.21-20.2,24.19-20.2c12.99,0,18.94,10.73,24.19,20.2
				c5.14,9.27,8.7,14.9,14.76,14.9c6.05,0,9.62-5.63,14.76-14.9c5.25-9.47,11.21-20.2,24.19-20.2c12.99,0,18.94,10.73,24.19,20.2
				c5.14,9.27,8.71,14.9,14.76,14.9c2.92,0,5.29,2.17,5.29,4.84S4194.24,1333.64,4191.32,1333.64z"/>
		</g>
		<g>
			<path class="st1" d="M949.5,1663.96c-12.99,0-18.94-10.73-24.19-20.2c-5.14-9.27-8.71-14.9-14.76-14.9
				c-6.05,0-9.61,5.63-14.76,14.9c-5.25,9.47-11.21,20.2-24.19,20.2c-12.98,0-18.94-10.73-24.19-20.2
				c-5.14-9.27-8.7-14.9-14.76-14.9c-6.05,0-9.61,5.63-14.76,14.9c-5.25,9.47-11.21,20.2-24.19,20.2
				c-12.98,0-18.94-10.73-24.19-20.2c-5.14-9.27-8.7-14.9-14.76-14.9c-2.92,0-5.29-2.17-5.29-4.84c0-2.67,2.37-4.84,5.29-4.84
				c12.98,0,18.94,10.73,24.19,20.2c5.14,9.27,8.7,14.9,14.76,14.9c6.05,0,9.61-5.63,14.76-14.9c5.25-9.47,11.21-20.2,24.19-20.2
				c12.99,0,18.94,10.73,24.19,20.2c5.14,9.27,8.7,14.9,14.76,14.9c6.05,0,9.62-5.63,14.76-14.9c5.25-9.47,11.21-20.2,24.19-20.2
				c12.99,0,18.94,10.73,24.19,20.2c5.14,9.27,8.7,14.9,14.76,14.9c2.92,0,5.29,2.17,5.29,4.84S952.42,1663.96,949.5,1663.96z"/>
		</g>
	</g>
	
		<linearGradient id="SVGID_00000070825539539895357990000012136676609690285188_" gradientUnits="userSpaceOnUse" x1="402.7838" y1="2712.6104" x2="4743.354" y2="202.8929">
		<stop  offset="0" style="stop-color:#C5E6FB"/>
		<stop  offset="1" style="stop-color:#DCD4F8"/>
	</linearGradient>
	
		<rect style="clip-path:url(#SVGID_00000179641127385985061600000000741052806491622065_);fill:url(#SVGID_00000070825539539895357990000012136676609690285188_);" width="5000" height="3000"/>
	<g style="clip-path:url(#SVGID_00000179641127385985061600000000741052806491622065_);">
		
			<linearGradient id="SVGID_00000156562952091033656210000004654916056522860709_" gradientUnits="userSpaceOnUse" x1="6158.2979" y1="2912.2397" x2="2424.582" y2="-142.6182">
			<stop  offset="0" style="stop-color:#C5E6FB"/>
			<stop  offset="1" style="stop-color:#DCD4F8"/>
		</linearGradient>
		<path style="fill:url(#SVGID_00000156562952091033656210000004654916056522860709_);" d="M5814.19,2276.39
			c-235.3,34.24-449.67,151.32-677.93,217.93c-228.26,66.61-500.54,72.57-676.47-87.4c-113.46-103.17-166.44-257.18-266.67-373.24
			c-127.94-148.16-323.73-222.66-517.76-248.59c-194.03-25.93-390.83-8.95-586.54-4.79c-319.34,6.78-642.58-21.53-945.57-122.62
			c-302.99-101.09-585.76-278.83-778.74-533.35c-121.31-160-205.69-347.27-340.64-495.95C714.04,287.05,201.59,216.24-257.08,262.33
			l171.79-495.9l5414.32-131.72L5814.19,2276.39z"/>
	</g>
	<g style="clip-path:url(#SVGID_00000179641127385985061600000000741052806491622065_);">
		
			<linearGradient id="SVGID_00000070077154809054295310000002039165376178358959_" gradientUnits="userSpaceOnUse" x1="3932.7776" y1="-289.4815" x2="5146.4917" y2="708.2339">
			<stop  offset="0" style="stop-color:#C5E6FB"/>
			<stop  offset="1" style="stop-color:#DCD4F8"/>
		</linearGradient>
		<path style="fill:url(#SVGID_00000070077154809054295310000002039165376178358959_);" d="M5375.46,336.66
			c-683.99,314.81-1531,243.11-2152.34-182.19c-144.18-98.69-282.06-222.72-338.64-388.03l2440.69,53.42L5375.46,336.66z"/>
	</g>
	<g style="clip-path:url(#SVGID_00000179641127385985061600000000741052806491622065_);">
		
			<linearGradient id="SVGID_00000114774916603864991120000016686600421856826254_" gradientUnits="userSpaceOnUse" x1="1148.4872" y1="1019.6719" x2="2084.4878" y2="2994.5303">
			<stop  offset="0" style="stop-color:#C5E6FB"/>
			<stop  offset="1" style="stop-color:#DCD4F8"/>
		</linearGradient>
		<path style="fill:url(#SVGID_00000114774916603864991120000016686600421856826254_);" d="M4698.46,3343.11
			c9.67-158.09-144.91-282.64-299.53-316.94c-154.62-34.31-316.08-8.35-473.71-23.73c-157.63-15.38-329.34-91.52-376.48-242.72
			c-46.05-147.72,43.29-312.31-2.4-460.14c-55.88-180.8-275.35-244.34-462.41-272.97c-557.89-85.4-1134.73-112.72-1655.03-331.4
			c-165.9-69.73-333.14-167.58-413.85-328.42c-66.11-131.74-64.81-287.75-119.73-424.53C815.97,744.62,625.59,608.53,423,542.87
			S3.92,472.03-208.99,467.44L-363,3064.46L4698.46,3343.11z"/>
	</g>
	<g style="clip-path:url(#SVGID_00000179641127385985061600000000741052806491622065_);">
		
			<linearGradient id="SVGID_00000031903417909427208360000007397421162656798888_" gradientUnits="userSpaceOnUse" x1="1270.6466" y1="3143.2144" x2="-621.9247" y2="1672.358">
			<stop  offset="0" style="stop-color:#C5E6FB"/>
			<stop  offset="1" style="stop-color:#DCD4F8"/>
		</linearGradient>
		<path style="fill:url(#SVGID_00000031903417909427208360000007397421162656798888_);" d="M-138.39,1650.45
			c106.7-15.76,215.73-31.5,321.8-11.92s210.54,81.24,252.6,180.56c37.94,89.59,19.98,192.77,41.14,287.74
			c43.71,196.12,243.69,318.15,438.45,367.59c215.66,54.75,441.27,48.65,663.33,62.55s451.95,51.69,633.73,180
			s300.37,368.66,227.41,578.85l-2649.05-143.38L-138.39,1650.45z"/>
	</g>
	<g style="clip-path:url(#SVGID_00000179641127385985061600000000741052806491622065_);">
		
			<linearGradient id="SVGID_00000018226419169511154680000014288654049041656976_" gradientUnits="userSpaceOnUse" x1="3741.6912" y1="1356.0803" x2="4101.6914" y2="-73.6338">
			<stop  offset="0" style="stop-color:#C5E6FB"/>
			<stop  offset="1" style="stop-color:#DCD4F8"/>
		</linearGradient>
		<path style="fill:url(#SVGID_00000018226419169511154680000014288654049041656976_);" d="M2060.89-91.52
			c290.81,37.99,589.45,78.48,846.13,220.34s465.37,410.49,448.04,703.25c-5.82,98.31-36.21,193.46-49.6,291.03
			c-13.39,97.57-7.3,204.28,51.46,283.31c102.93,138.44,306.55,131.1,478.68,142.66c345.35,23.2,679.7,182.79,914.92,436.71
			c92.49,99.84,176.96,218.39,304.98,264.6c180.84,65.27,375.22-36.66,540.34-135.16l37.73-2206.74H2060.89z"/>
	</g>
	<g style="clip-path:url(#SVGID_00000179641127385985061600000000741052806491622065_);">
		
			<linearGradient id="SVGID_00000119082904266753408830000013016458458149723823_" gradientUnits="userSpaceOnUse" x1="1575.5435" y1="3924.0415" x2="-327.3169" y2="2124.0359">
			<stop  offset="0" style="stop-color:#C5E6FB"/>
			<stop  offset="1" style="stop-color:#DCD4F8"/>
		</linearGradient>
		<path style="fill:url(#SVGID_00000119082904266753408830000013016458458149723823_);" d="M1835.02,3424.2
			c-123.59-359.26-484-595.26-855.24-676.06s-756.93-32.85-1133.77,15.42l58.42,460.87L1835.02,3424.2z"/>
	</g>
	<g style="clip-path:url(#SVGID_00000179641127385985061600000000741052806491622065_);">
		
			<linearGradient id="SVGID_00000179621234412664040630000008327632404135649936_" gradientUnits="userSpaceOnUse" x1="4697.6553" y1="176.3549" x2="5602.7979" y2="1194.6418">
			<stop  offset="0" style="stop-color:#C5E6FB"/>
			<stop  offset="1" style="stop-color:#DCD4F8"/>
		</linearGradient>
		<path style="fill:url(#SVGID_00000179621234412664040630000008327632404135649936_);" d="M5329.04,1051.82
			c-150.91,36.76-306.47,73.77-460.08,50.74c-153.61-23.04-306.66-121.11-346.38-271.27c-38.63-146.03,34.91-307.87-17.96-449.37
			c-44.24-118.4-165.35-189.36-284.14-232.52c-118.79-43.17-246.47-69.58-350.05-142c-103.58-72.42-176.59-211.31-124.21-326.33
			l1388.3,85.38L5329.04,1051.82z"/>
	</g>
	<g style="clip-path:url(#SVGID_00000179641127385985061600000000741052806491622065_);">
		
			<linearGradient id="SVGID_00000177475969035393272800000008893724946878170778_" gradientUnits="userSpaceOnUse" x1="4897.3711" y1="1348.6562" x2="5339.6572" y2="1945.2277">
			<stop  offset="0" style="stop-color:#C5E6FB"/>
			<stop  offset="1" style="stop-color:#DCD4F8"/>
		</linearGradient>
		<path style="fill:url(#SVGID_00000177475969035393272800000008893724946878170778_);" d="M5247.71,1970.32
			c-297.96,29.64-607.04-88.41-809.37-309.14c-78.75-85.91-143.68-191.93-149.11-308.34c-8.77-187.83,139.25-350.05,305.1-438.66
			c165.85-88.61,354.2-126.33,524.92-205.14L5247.71,1970.32z"/>
	</g>
	<g style="clip-path:url(#SVGID_00000179641127385985061600000000741052806491622065_);">
		<g>
			<path class="st1" d="M4699.2,3060.13c-259.23,23.05-495.03,134.75-747.79,184.82c-211.83,41.97-463.55,38.44-638.66-100.78
				c-93.06-73.99-145.77-179-202.06-278.8c-51.59-91.46-110.83-175.45-196.07-241.45c-187.33-145.06-432.64-189.62-666.59-202.94
				c-138.74-7.9-277.79-6.42-416.6-12.53c-135.32-5.96-270.48-17.97-404.34-38.48c-256.18-39.26-508.81-110.42-738.1-228.69
				C479.24,2033.09,289,1886.28,146.85,1702.34C2.05,1514.99-79.57,1288.46-242.3,1112.98
				c-282.93-305.11-730.19-404.36-1139.58-409.97c-51.01-0.7-102,0.13-152.95,2.16c-2.55,0.1-2.05,3.87,0.49,3.77
				c426.61-17.29,905.11,52.78,1227.87,345.3c179.79,162.94,268.08,384.67,400.06,580.07c124.83,184.81,296.89,336.79,491.48,452.93
				c207.55,123.88,439.26,205.8,677.33,256c266.11,56.11,535.7,68.66,806.97,74.38c257.02,5.42,525.68,20.13,753.01,148.73
				c103.68,58.65,186.9,138.57,248.68,237.32c58.34,93.24,102.05,195.72,175.04,280.1c132.5,153.18,345.21,197.15,543.81,184.96
				c249.4-15.31,478.13-119.92,718.27-175.38c62.98-14.54,126.69-25.49,191.26-31.33
				C4700.71,3061.89,4700.47,3060.02,4699.2,3060.13L4699.2,3060.13z"/>
		</g>
		<g>
			<path class="st1" d="M4765.45,3051.78c-259.23,23.05-495.03,134.75-747.79,184.82c-211.83,41.97-463.55,38.44-638.66-100.78
				c-93.06-73.99-145.77-179-202.06-278.8c-51.59-91.46-110.83-175.45-196.07-241.45c-187.33-145.06-432.64-189.62-666.59-202.94
				c-138.74-7.9-277.79-6.42-416.6-12.53c-135.32-5.96-270.48-17.97-404.34-38.48c-256.18-39.26-508.81-110.42-738.1-228.69
				C545.49,2024.74,355.25,1877.94,213.1,1694c-144.79-187.36-226.41-413.88-389.14-589.36
				c-282.93-305.11-730.19-404.36-1139.58-409.97c-51.01-0.7-102,0.13-152.95,2.16c-2.55,0.1-2.05,3.87,0.49,3.77
				c426.61-17.29,905.11,52.78,1227.87,345.3c179.79,162.94,268.08,384.67,400.06,580.07c124.83,184.81,296.89,336.79,491.48,452.93
				c207.55,123.88,439.26,205.8,677.33,256c266.11,56.11,535.7,68.66,806.97,74.38c257.02,5.42,525.68,20.13,753.01,148.73
				c103.68,58.65,186.9,138.57,248.68,237.32c58.34,93.24,102.05,195.72,175.04,280.1c132.5,153.18,345.21,197.15,543.81,184.96
				c249.4-15.31,478.13-119.92,718.27-175.38c62.98-14.54,126.69-25.49,191.26-31.33
				C4766.96,3053.54,4766.72,3051.67,4765.45,3051.78L4765.45,3051.78z"/>
		</g>
		<g>
			<path class="st1" d="M4831.7,3043.43c-259.23,23.05-495.03,134.75-747.79,184.82c-211.83,41.97-463.55,38.44-638.66-100.78
				c-93.06-73.99-145.77-179-202.06-278.8c-51.59-91.46-110.83-175.45-196.07-241.45c-187.33-145.06-432.64-189.62-666.59-202.94
				c-138.74-7.9-277.79-6.42-416.6-12.53c-135.32-5.96-270.48-17.97-404.34-38.48c-256.18-39.26-508.81-110.42-738.1-228.69
				c-209.74-108.18-399.98-254.99-542.13-438.93c-144.79-187.36-226.41-413.88-389.14-589.36
				c-282.93-305.11-730.19-404.36-1139.58-409.97c-51.01-0.7-102,0.13-152.95,2.16c-2.55,0.1-2.05,3.87,0.49,3.77
				c426.61-17.29,905.11,52.78,1227.87,345.3C5.83,1200.48,94.11,1422.21,226.1,1617.6c124.83,184.81,296.89,336.79,491.48,452.93
				c207.55,123.88,439.26,205.8,677.33,256c266.11,56.11,535.7,68.66,806.97,74.37c257.02,5.42,525.68,20.13,753.01,148.73
				c103.68,58.65,186.9,138.57,248.68,237.32c58.34,93.24,102.05,195.72,175.04,280.1c132.5,153.18,345.21,197.15,543.81,184.96
				c249.4-15.31,478.13-119.92,718.27-175.38c62.98-14.54,126.69-25.49,191.26-31.33C4833.21,3045.2,4832.97,3043.32,4831.7,3043.43
				L4831.7,3043.43z"/>
		</g>
		<g>
			<path class="st1" d="M4897.96,3035.09c-259.23,23.05-495.03,134.75-747.79,184.82c-211.83,41.97-463.55,38.44-638.67-100.78
				c-93.06-73.99-145.77-179-202.06-278.8c-51.59-91.46-110.83-175.45-196.07-241.45c-187.33-145.06-432.64-189.62-666.59-202.94
				c-138.74-7.9-277.79-6.42-416.6-12.53c-135.32-5.96-270.48-17.97-404.34-38.48c-256.18-39.26-508.81-110.42-738.1-228.69
				c-209.74-108.18-399.98-254.99-542.13-438.93c-144.79-187.36-226.41-413.88-389.14-589.36
				c-282.93-305.11-730.19-404.36-1139.58-409.97c-51.01-0.7-102,0.13-152.95,2.16c-2.55,0.1-2.05,3.87,0.49,3.77
				c426.61-17.29,905.11,52.78,1227.87,345.3c179.79,162.94,268.08,384.67,400.06,580.07c124.83,184.81,296.89,336.79,491.48,452.93
				c207.55,123.88,439.26,205.8,677.33,256c266.11,56.11,535.7,68.66,806.97,74.38c257.02,5.42,525.68,20.13,753.01,148.73
				c103.68,58.65,186.9,138.57,248.68,237.32c58.34,93.24,102.05,195.72,175.04,280.1c132.5,153.18,345.21,197.15,543.81,184.96
				c249.4-15.31,478.13-119.92,718.27-175.38c62.98-14.54,126.69-25.49,191.26-31.33
				C4899.47,3036.85,4899.22,3034.97,4897.96,3035.09L4897.96,3035.09z"/>
		</g>
		<g>
			<path class="st1" d="M4964.21,3026.74c-259.23,23.05-495.03,134.75-747.79,184.82c-211.83,41.97-463.55,38.44-638.67-100.78
				c-93.06-73.99-145.77-179-202.06-278.8c-51.59-91.46-110.83-175.45-196.07-241.45c-187.33-145.06-432.64-189.62-666.59-202.94
				c-138.74-7.9-277.79-6.42-416.6-12.53c-135.32-5.96-270.48-17.97-404.34-38.48c-256.18-39.26-508.81-110.42-738.1-228.69
				C744.24,1999.7,554,1852.89,411.85,1668.95c-144.79-187.36-226.41-413.88-389.14-589.36
				c-282.93-305.11-730.19-404.36-1139.58-409.97c-51.01-0.7-102,0.13-152.95,2.16c-2.55,0.1-2.05,3.87,0.49,3.77
				c426.61-17.29,905.11,52.78,1227.87,345.3c179.79,162.94,268.08,384.67,400.06,580.07c124.83,184.81,296.89,336.79,491.48,452.93
				c207.55,123.88,439.26,205.8,677.33,256c266.11,56.11,535.7,68.66,806.97,74.38c257.02,5.42,525.68,20.13,753.01,148.73
				c103.68,58.65,186.9,138.57,248.68,237.32c58.34,93.24,102.05,195.72,175.04,280.1c132.5,153.18,345.21,197.15,543.81,184.96
				c249.4-15.31,478.13-119.92,718.27-175.38c62.98-14.54,126.69-25.49,191.26-31.33
				C4965.72,3028.5,4965.47,3026.63,4964.21,3026.74L4964.21,3026.74z"/>
		</g>
		<g>
			<path class="st1" d="M5030.46,3018.39c-259.23,23.05-495.03,134.75-747.79,184.82c-211.83,41.97-463.55,38.44-638.66-100.78
				c-93.06-73.99-145.77-179-202.06-278.8c-51.59-91.46-110.83-175.45-196.07-241.45c-187.33-145.06-432.64-189.62-666.59-202.94
				c-138.74-7.9-277.79-6.42-416.6-12.53c-135.32-5.96-270.48-17.97-404.34-38.48c-256.18-39.26-508.81-110.42-738.1-228.69
				c-209.74-108.18-399.98-254.99-542.13-438.93c-144.79-187.36-226.41-413.88-389.14-589.36
				c-282.93-305.11-730.19-404.36-1139.58-409.97c-51.01-0.7-102,0.13-152.95,2.16c-2.55,0.1-2.05,3.87,0.49,3.77
				c426.61-17.29,905.11,52.78,1227.87,345.3c179.79,162.94,268.08,384.67,400.06,580.07c124.83,184.81,296.89,336.79,491.48,452.93
				c207.55,123.88,439.26,205.8,677.33,256c266.11,56.11,535.7,68.66,806.97,74.37c257.02,5.42,525.68,20.13,753.01,148.73
				c103.68,58.65,186.9,138.57,248.68,237.32c58.34,93.24,102.05,195.72,175.04,280.1c132.5,153.18,345.21,197.15,543.81,184.96
				c249.4-15.31,478.13-119.92,718.27-175.38c62.98-14.54,126.69-25.49,191.26-31.33
				C5031.97,3020.16,5031.72,3018.28,5030.46,3018.39L5030.46,3018.39z"/>
		</g>
		<g>
			<path class="st1" d="M5096.71,3010.05c-259.23,23.05-495.03,134.75-747.79,184.82c-211.83,41.97-463.55,38.44-638.66-100.78
				c-93.06-73.99-145.77-179-202.06-278.8c-51.59-91.46-110.83-175.45-196.07-241.45c-187.33-145.06-432.64-189.62-666.59-202.94
				c-138.74-7.9-277.79-6.42-416.6-12.53c-135.32-5.96-270.48-17.97-404.34-38.48c-256.18-39.26-508.81-110.42-738.1-228.69
				c-209.74-108.18-399.98-254.99-542.13-438.93c-144.79-187.36-226.41-413.88-389.14-589.36
				C-127.72,757.78-574.98,658.53-984.37,652.92c-51.01-0.7-102,0.13-152.95,2.16c-2.55,0.1-2.05,3.87,0.49,3.77
				c426.61-17.29,905.11,52.78,1227.87,345.3c179.79,162.94,268.08,384.67,400.06,580.07c124.83,184.81,296.89,336.79,491.48,452.93
				c207.55,123.88,439.26,205.8,677.33,256c266.11,56.11,535.7,68.66,806.97,74.37c257.02,5.42,525.68,20.13,753.01,148.73
				c103.68,58.65,186.9,138.57,248.68,237.32c58.34,93.24,102.05,195.72,175.04,280.1c132.5,153.18,345.21,197.15,543.81,184.96
				c249.4-15.31,478.13-119.92,718.27-175.38c62.98-14.54,126.69-25.49,191.26-31.33
				C5098.22,3011.81,5097.98,3009.93,5096.71,3010.05L5096.71,3010.05z"/>
		</g>
		<g>
			<path class="st1" d="M5162.96,3001.7c-259.23,23.05-495.03,134.75-747.79,184.82c-211.83,41.97-463.55,38.44-638.66-100.78
				c-93.06-73.99-145.77-179-202.06-278.8c-51.59-91.46-110.83-175.45-196.07-241.45c-187.33-145.06-432.64-189.62-666.59-202.94
				c-138.74-7.9-277.79-6.42-416.6-12.53c-135.32-5.96-270.48-17.97-404.34-38.48c-256.18-39.26-508.81-110.42-738.1-228.69
				C943,1974.66,752.75,1827.85,610.6,1643.91c-144.79-187.36-226.41-413.88-389.14-589.36
				C-61.47,749.44-508.73,650.19-918.12,644.58c-51.01-0.7-102,0.13-152.95,2.16c-2.55,0.1-2.06,3.87,0.49,3.77
				c426.61-17.29,905.11,52.78,1227.87,345.3c179.79,162.94,268.08,384.67,400.06,580.07c124.83,184.81,296.89,336.79,491.48,452.93
				c207.55,123.88,439.26,205.8,677.33,256c266.11,56.11,535.7,68.66,806.97,74.37c257.02,5.42,525.68,20.13,753.01,148.73
				c103.68,58.65,186.9,138.57,248.68,237.32c58.34,93.24,102.05,195.72,175.04,280.1c132.5,153.18,345.21,197.15,543.81,184.96
				c249.4-15.31,478.13-119.92,718.27-175.38c62.98-14.54,126.69-25.49,191.26-31.33
				C5164.47,3003.46,5164.23,3001.59,5162.96,3001.7L5162.96,3001.7z"/>
		</g>
		<g>
			<path class="st1" d="M5229.21,2993.35c-259.23,23.05-495.03,134.75-747.79,184.82c-211.83,41.97-463.55,38.44-638.66-100.78
				c-93.06-73.99-145.77-179-202.06-278.8c-51.59-91.46-110.83-175.45-196.07-241.45c-187.33-145.06-432.64-189.62-666.59-202.94
				c-138.74-7.9-277.79-6.42-416.6-12.53c-135.32-5.96-270.48-17.97-404.34-38.48c-256.18-39.26-508.81-110.42-738.1-228.69
				C1009.25,1966.31,819,1819.5,676.85,1635.56c-144.79-187.36-226.41-413.88-389.14-589.36
				C4.78,741.09-442.48,641.84-851.87,636.23c-51.01-0.7-102,0.13-152.95,2.16c-2.55,0.1-2.06,3.87,0.49,3.77
				c426.61-17.29,905.11,52.78,1227.87,345.3c179.79,162.94,268.08,384.67,400.06,580.07c124.83,184.81,296.89,336.79,491.48,452.93
				c207.55,123.88,439.26,205.8,677.33,256c266.11,56.11,535.7,68.66,806.97,74.38c257.02,5.42,525.68,20.13,753.01,148.73
				c103.68,58.65,186.9,138.57,248.68,237.32c58.34,93.24,102.05,195.72,175.04,280.1c132.5,153.18,345.21,197.15,543.81,184.96
				c249.4-15.31,478.13-119.92,718.27-175.38c62.98-14.54,126.69-25.49,191.26-31.33
				C5230.72,2995.11,5230.48,2993.24,5229.21,2993.35L5229.21,2993.35z"/>
		</g>
		<g>
			<path class="st1" d="M5295.46,2985c-259.23,23.05-495.03,134.75-747.79,184.82c-211.83,41.97-463.55,38.44-638.66-100.78
				c-93.06-73.99-145.77-179-202.06-278.8c-51.59-91.46-110.83-175.45-196.07-241.45c-187.33-145.06-432.64-189.62-666.59-202.94
				c-138.74-7.9-277.79-6.42-416.6-12.53c-135.32-5.96-270.48-17.97-404.34-38.48c-256.18-39.26-508.81-110.42-738.1-228.69
				c-209.74-108.18-399.98-254.99-542.13-438.93c-144.79-187.36-226.41-413.88-389.14-589.36
				C71.03,732.74-376.23,633.49-785.62,627.88c-51.01-0.7-102,0.13-152.95,2.16c-2.55,0.1-2.05,3.87,0.49,3.77
				c426.61-17.29,905.11,52.78,1227.87,345.3c179.79,162.94,268.08,384.67,400.06,580.07c124.83,184.81,296.89,336.79,491.48,452.93
				c207.55,123.88,439.26,205.8,677.33,256c266.11,56.11,535.7,68.66,806.97,74.38c257.02,5.42,525.68,20.13,753.01,148.73
				c103.68,58.65,186.9,138.57,248.68,237.32c58.34,93.24,102.05,195.72,175.04,280.1c132.5,153.18,345.21,197.15,543.81,184.96
				c249.4-15.31,478.13-119.92,718.27-175.38c62.98-14.54,126.69-25.49,191.26-31.33C5296.97,2986.77,5296.73,2984.89,5295.46,2985
				L5295.46,2985z"/>
		</g>
		<g>
			<path class="st1" d="M5361.71,2976.66c-259.23,23.05-495.03,134.75-747.79,184.82c-211.83,41.97-463.55,38.44-638.66-100.78
				c-93.06-73.99-145.77-179-202.06-278.8c-51.59-91.46-110.83-175.45-196.07-241.45c-187.33-145.06-432.64-189.62-666.59-202.94
				c-138.74-7.9-277.79-6.42-416.6-12.53c-135.32-5.96-270.48-17.97-404.34-38.48c-256.18-39.26-508.81-110.42-738.1-228.69
				c-209.74-108.18-399.98-254.99-542.13-438.93c-144.79-187.36-226.41-413.88-389.14-589.36
				C137.28,724.4-309.98,625.14-719.37,619.53c-51.01-0.7-102,0.13-152.95,2.16c-2.55,0.1-2.05,3.87,0.49,3.77
				c426.61-17.29,905.11,52.78,1227.87,345.3c179.79,162.94,268.08,384.67,400.06,580.07c124.83,184.81,296.89,336.79,491.48,452.93
				c207.55,123.88,439.26,205.8,677.33,256c266.11,56.11,535.7,68.66,806.97,74.38c257.02,5.42,525.68,20.13,753.01,148.73
				c103.68,58.65,186.9,138.57,248.68,237.32c58.34,93.24,102.05,195.72,175.04,280.1c132.5,153.18,345.21,197.15,543.81,184.96
				c249.4-15.31,478.13-119.92,718.27-175.38c62.98-14.54,126.69-25.49,191.26-31.33
				C5363.22,2978.42,5362.98,2976.54,5361.71,2976.66L5361.71,2976.66z"/>
		</g>
		<g>
			<path class="st1" d="M5427.96,2968.31c-259.23,23.05-495.03,134.75-747.79,184.82c-211.83,41.97-463.55,38.44-638.66-100.78
				c-93.06-73.99-145.77-179-202.06-278.8c-51.59-91.46-110.83-175.45-196.07-241.45c-187.33-145.06-432.64-189.62-666.59-202.94
				c-138.74-7.9-277.79-6.42-416.6-12.53c-135.32-5.96-270.48-17.97-404.34-38.48c-256.18-39.26-508.81-110.42-738.1-228.69
				c-209.74-108.18-399.98-254.99-542.13-438.93c-144.79-187.36-226.41-413.88-389.14-589.36
				C203.53,716.05-243.73,616.8-653.11,611.19c-51.01-0.7-102,0.13-152.95,2.16c-2.55,0.1-2.05,3.87,0.49,3.77
				c426.61-17.29,905.11,52.78,1227.87,345.3c179.79,162.94,268.08,384.67,400.06,580.07c124.83,184.81,296.89,336.79,491.48,452.93
				c207.55,123.88,439.26,205.8,677.33,256c266.11,56.11,535.7,68.66,806.97,74.38c257.02,5.42,525.68,20.13,753.01,148.73
				c103.68,58.65,186.9,138.57,248.68,237.32c58.34,93.24,102.05,195.72,175.04,280.1c132.5,153.18,345.21,197.15,543.81,184.96
				c249.4-15.31,478.13-119.92,718.27-175.38c62.98-14.54,126.69-25.49,191.26-31.33
				C5429.47,2970.07,5429.23,2968.2,5427.96,2968.31L5427.96,2968.31z"/>
		</g>
		<g>
			<path class="st1" d="M5494.21,2959.96c-259.23,23.05-495.03,134.75-747.79,184.82c-211.83,41.97-463.55,38.44-638.66-100.78
				c-93.06-73.99-145.77-179-202.06-278.8c-51.59-91.46-110.83-175.45-196.07-241.45c-187.33-145.06-432.64-189.62-666.59-202.94
				c-138.74-7.9-277.79-6.42-416.6-12.53c-135.32-5.96-270.48-17.97-404.34-38.48c-256.18-39.26-508.81-110.42-738.1-228.69
				c-209.74-108.18-399.98-254.99-542.13-438.93c-144.79-187.36-226.41-413.88-389.14-589.36
				C269.78,707.7-177.48,608.45-586.86,602.84c-51.01-0.7-102,0.13-152.95,2.16c-2.55,0.1-2.05,3.87,0.49,3.77
				c426.61-17.29,905.11,52.78,1227.87,345.3c179.79,162.94,268.08,384.67,400.06,580.07c124.83,184.81,296.89,336.79,491.48,452.93
				c207.55,123.88,439.26,205.8,677.33,256c266.11,56.11,535.7,68.66,806.97,74.37c257.02,5.42,525.68,20.13,753.01,148.73
				c103.68,58.65,186.9,138.57,248.68,237.32c58.34,93.24,102.05,195.72,175.04,280.1c132.5,153.18,345.21,197.15,543.81,184.96
				c249.4-15.31,478.13-119.92,718.27-175.38c62.98-14.54,126.69-25.49,191.26-31.33
				C5495.72,2961.73,5495.48,2959.85,5494.21,2959.96L5494.21,2959.96z"/>
		</g>
		<g>
			<path class="st1" d="M5560.47,2951.61c-259.23,23.05-495.03,134.75-747.79,184.82c-211.83,41.97-463.55,38.44-638.66-100.78
				c-93.06-73.99-145.77-179-202.06-278.8c-51.59-91.46-110.83-175.45-196.07-241.45c-187.33-145.06-432.64-189.62-666.59-202.94
				c-138.74-7.9-277.79-6.42-416.6-12.53c-135.32-5.96-270.48-17.97-404.34-38.48c-256.18-39.26-508.81-110.42-738.1-228.69
				c-209.74-108.18-399.98-254.99-542.13-438.93c-144.79-187.36-226.41-413.88-389.14-589.36
				C336.03,699.35-111.23,600.1-520.61,594.49c-51.01-0.7-102,0.13-152.95,2.16c-2.55,0.1-2.05,3.87,0.49,3.77
				c426.61-17.29,905.11,52.78,1227.87,345.3c179.79,162.94,268.08,384.67,400.06,580.07c124.83,184.81,296.89,336.79,491.48,452.93
				c207.55,123.88,439.26,205.8,677.33,256c266.11,56.11,535.7,68.66,806.97,74.37c257.02,5.42,525.68,20.13,753.01,148.73
				c103.68,58.65,186.9,138.57,248.68,237.32c58.34,93.24,102.05,195.72,175.04,280.1c132.5,153.18,345.21,197.15,543.81,184.96
				c249.4-15.31,478.13-119.92,718.27-175.38c62.98-14.54,126.69-25.49,191.26-31.33
				C5561.98,2953.38,5561.73,2951.5,5560.47,2951.61L5560.47,2951.61z"/>
		</g>
		<g>
			<path class="st1" d="M5626.72,2943.27c-259.23,23.05-495.03,134.75-747.79,184.82c-211.83,41.97-463.55,38.44-638.66-100.78
				c-93.06-73.99-145.77-179-202.06-278.8c-51.59-91.46-110.83-175.45-196.07-241.45c-187.33-145.06-432.64-189.62-666.59-202.94
				c-138.74-7.9-277.79-6.42-416.6-12.53c-135.32-5.96-270.48-17.97-404.34-38.48c-256.18-39.26-508.81-110.42-738.1-228.69
				c-209.74-108.18-399.98-254.99-542.13-438.93c-144.79-187.36-226.41-413.88-389.14-589.36
				C402.28,691.01-44.98,591.76-454.36,586.14c-51.01-0.7-102,0.13-152.95,2.16c-2.55,0.1-2.05,3.87,0.49,3.77
				c426.61-17.29,905.11,52.78,1227.87,345.3c179.79,162.94,268.08,384.67,400.06,580.07c124.83,184.81,296.89,336.79,491.48,452.93
				c207.55,123.88,439.26,205.8,677.33,256c266.11,56.11,535.7,68.66,806.97,74.37c257.02,5.42,525.68,20.13,753.01,148.73
				c103.68,58.65,186.9,138.57,248.68,237.32c58.34,93.24,102.05,195.72,175.04,280.1c132.5,153.18,345.21,197.15,543.81,184.96
				c249.4-15.31,478.13-119.92,718.27-175.38c62.98-14.54,126.69-25.49,191.26-31.33
				C5628.23,2945.03,5627.98,2943.16,5626.72,2943.27L5626.72,2943.27z"/>
		</g>
		<g>
			<path class="st1" d="M5692.97,2934.92c-259.23,23.05-495.03,134.75-747.79,184.82c-211.83,41.97-463.55,38.44-638.66-100.78
				c-93.06-73.99-145.77-179-202.06-278.8c-51.59-91.46-110.83-175.45-196.07-241.45c-187.33-145.06-432.64-189.62-666.59-202.94
				c-138.74-7.9-277.79-6.42-416.6-12.53c-135.32-5.96-270.48-17.97-404.34-38.48c-256.18-39.26-508.81-110.42-738.1-228.69
				c-209.74-108.18-399.98-254.99-542.13-438.93c-144.79-187.36-226.41-413.88-389.14-589.36
				C468.53,682.66,21.28,583.41-388.11,577.8c-51.01-0.7-102,0.13-152.95,2.16c-2.55,0.1-2.05,3.87,0.49,3.77
				c426.61-17.29,905.11,52.78,1227.87,345.3c179.79,162.94,268.08,384.67,400.06,580.07c124.83,184.81,296.89,336.79,491.48,452.93
				c207.55,123.88,439.26,205.8,677.33,256c266.11,56.11,535.7,68.66,806.97,74.37c257.02,5.42,525.68,20.13,753.01,148.73
				c103.68,58.65,186.9,138.57,248.68,237.32c58.34,93.24,102.05,195.72,175.04,280.1c132.5,153.18,345.21,197.15,543.81,184.96
				c249.4-15.31,478.13-119.92,718.27-175.38c62.98-14.54,126.69-25.49,191.26-31.33
				C5694.48,2936.68,5694.23,2934.81,5692.97,2934.92L5692.97,2934.92z"/>
		</g>
		<g>
			<path class="st1" d="M5759.22,2926.57c-259.23,23.05-495.03,134.75-747.79,184.82c-211.83,41.97-463.55,38.44-638.66-100.78
				c-93.06-73.99-145.77-179-202.06-278.8c-51.59-91.46-110.83-175.45-196.07-241.45c-187.33-145.06-432.64-189.62-666.59-202.94
				c-138.74-7.9-277.79-6.42-416.6-12.53c-135.32-5.96-270.48-17.97-404.34-38.48c-256.18-39.26-508.81-110.42-738.1-228.69
				c-209.74-108.18-399.98-254.99-542.13-438.93c-144.79-187.36-226.41-413.88-389.14-589.36
				C534.79,674.31,87.53,575.06-321.86,569.45c-51.01-0.7-102,0.13-152.95,2.16c-2.55,0.1-2.05,3.87,0.49,3.77
				c426.61-17.29,905.11,52.78,1227.87,345.3c179.79,162.94,268.08,384.67,400.06,580.07c124.83,184.81,296.89,336.79,491.48,452.93
				c207.55,123.88,439.26,205.8,677.33,256c266.11,56.11,535.7,68.66,806.97,74.37c257.02,5.42,525.68,20.13,753.01,148.73
				c103.68,58.65,186.9,138.57,248.68,237.32c58.34,93.24,102.05,195.72,175.04,280.1c132.5,153.18,345.21,197.15,543.81,184.96
				c249.4-15.31,478.13-119.92,718.27-175.38c62.98-14.54,126.69-25.49,191.26-31.33
				C5760.73,2928.34,5760.49,2926.46,5759.22,2926.57L5759.22,2926.57z"/>
		</g>
		<g>
			<path class="st1" d="M5825.47,2918.23c-259.23,23.05-495.03,134.75-747.79,184.82c-211.83,41.97-463.55,38.44-638.66-100.78
				c-93.06-73.99-145.77-179-202.06-278.8c-51.59-91.46-110.83-175.45-196.07-241.45c-187.33-145.06-432.64-189.62-666.59-202.94
				c-138.74-7.9-277.79-6.42-416.6-12.53c-135.32-5.96-270.48-17.97-404.34-38.48c-256.18-39.26-508.81-110.42-738.1-228.69
				c-209.74-108.18-399.98-254.99-542.13-438.93c-144.79-187.36-226.41-413.88-389.14-589.36
				C601.04,665.96,153.78,566.71-255.61,561.1c-51.01-0.7-102,0.13-152.95,2.16c-2.55,0.1-2.05,3.87,0.49,3.77
				c426.61-17.29,905.11,52.78,1227.87,345.3c179.79,162.94,268.08,384.67,400.06,580.07c124.83,184.81,296.89,336.79,491.48,452.93
				c207.55,123.88,439.26,205.8,677.33,256c266.11,56.11,535.7,68.66,806.97,74.37c257.02,5.42,525.68,20.13,753.01,148.73
				c103.68,58.65,186.9,138.57,248.68,237.32c58.34,93.24,102.05,195.72,175.04,280.1c132.5,153.18,345.21,197.15,543.81,184.96
				c249.4-15.31,478.13-119.92,718.27-175.38c62.98-14.54,126.69-25.49,191.26-31.33
				C5826.98,2919.99,5826.74,2918.11,5825.47,2918.23L5825.47,2918.23z"/>
		</g>
		<g>
			<path class="st1" d="M5891.72,2909.88c-259.23,23.05-495.03,134.75-747.79,184.82c-211.83,41.97-463.55,38.44-638.66-100.78
				c-93.06-73.99-145.77-179-202.06-278.8c-51.59-91.46-110.83-175.45-196.07-241.45c-187.33-145.06-432.64-189.62-666.59-202.94
				c-138.74-7.9-277.79-6.42-416.6-12.53c-135.32-5.96-270.48-17.97-404.34-38.48c-256.18-39.26-508.81-110.42-738.1-228.69
				c-209.74-108.18-399.98-254.99-542.13-438.93c-144.79-187.36-226.41-413.88-389.14-589.36
				C667.29,657.62,220.03,558.37-189.36,552.76c-51.01-0.7-102,0.13-152.95,2.16c-2.55,0.1-2.06,3.87,0.49,3.77
				c426.61-17.29,905.11,52.78,1227.87,345.3c179.79,162.94,268.08,384.67,400.06,580.07c124.83,184.81,296.89,336.79,491.48,452.93
				c207.55,123.88,439.26,205.8,677.33,256c266.11,56.11,535.7,68.66,806.97,74.37c257.02,5.42,525.68,20.13,753.01,148.73
				c103.68,58.65,186.9,138.57,248.68,237.32c58.34,93.24,102.05,195.72,175.04,280.1c132.5,153.18,345.21,197.15,543.81,184.96
				c249.4-15.31,478.13-119.92,718.27-175.38c62.98-14.54,126.69-25.49,191.26-31.33
				C5893.23,2911.64,5892.99,2909.77,5891.72,2909.88L5891.72,2909.88z"/>
		</g>
		<g>
			<path class="st1" d="M5957.97,2901.53c-259.23,23.05-495.03,134.75-747.79,184.82c-211.83,41.97-463.55,38.44-638.66-100.78
				c-93.06-73.99-145.77-179-202.06-278.8c-51.59-91.46-110.83-175.45-196.07-241.45c-187.33-145.06-432.64-189.62-666.59-202.94
				c-138.74-7.9-277.79-6.42-416.6-12.53c-135.32-5.96-270.48-17.97-404.34-38.48c-256.18-39.26-508.81-110.42-738.1-228.69
				c-209.74-108.18-399.98-254.99-542.13-438.93c-144.79-187.36-226.41-413.88-389.14-589.36
				C733.54,649.27,286.28,550.02-123.11,544.41c-51.01-0.7-102,0.13-152.95,2.16c-2.55,0.1-2.05,3.87,0.49,3.77
				c426.61-17.29,905.11,52.78,1227.87,345.3c179.79,162.94,268.08,384.67,400.06,580.07c124.83,184.81,296.89,336.79,491.48,452.93
				c207.55,123.88,439.26,205.8,677.33,256c266.11,56.11,535.7,68.66,806.97,74.38c257.02,5.42,525.68,20.13,753.01,148.73
				c103.68,58.65,186.9,138.57,248.68,237.32c58.34,93.24,102.05,195.72,175.04,280.1c132.5,153.18,345.21,197.15,543.81,184.96
				c249.4-15.31,478.13-119.92,718.27-175.38c62.98-14.54,126.69-25.49,191.26-31.33
				C5959.48,2903.29,5959.24,2901.42,5957.97,2901.53L5957.97,2901.53z"/>
		</g>
		<g>
			<path class="st1" d="M6024.22,2893.18c-259.23,23.05-495.03,134.75-747.79,184.82c-211.83,41.97-463.55,38.44-638.66-100.78
				c-93.06-73.99-145.77-179-202.06-278.8c-51.59-91.46-110.83-175.45-196.07-241.45c-187.33-145.06-432.64-189.62-666.59-202.94
				c-138.74-7.9-277.79-6.42-416.6-12.53c-135.32-5.96-270.48-17.97-404.34-38.48c-256.18-39.26-508.81-110.42-738.1-228.69
				c-209.74-108.18-399.98-254.99-542.13-438.93c-144.79-187.36-226.41-413.88-389.14-589.36
				C799.79,640.92,352.53,541.67-56.86,536.06c-51.01-0.7-102,0.13-152.95,2.16c-2.55,0.1-2.05,3.87,0.49,3.77
				c426.61-17.29,905.11,52.78,1227.87,345.3c179.79,162.94,268.08,384.67,400.06,580.07c124.83,184.81,296.89,336.79,491.48,452.93
				c207.55,123.88,439.26,205.8,677.33,256c266.11,56.11,535.7,68.66,806.97,74.38c257.02,5.42,525.68,20.13,753.01,148.73
				c103.68,58.65,186.9,138.57,248.68,237.32c58.34,93.24,102.05,195.72,175.04,280.1c132.5,153.18,345.21,197.15,543.81,184.96
				c249.4-15.31,478.13-119.92,718.27-175.38c62.98-14.54,126.69-25.49,191.26-31.33
				C6025.73,2894.95,6025.49,2893.07,6024.22,2893.18L6024.22,2893.18z"/>
		</g>
		<g>
			<path class="st1" d="M6090.47,2884.84c-259.23,23.05-495.03,134.75-747.79,184.82c-211.83,41.97-463.55,38.44-638.67-100.78
				c-93.06-73.99-145.77-179-202.06-278.8c-51.59-91.46-110.83-175.45-196.07-241.45c-187.33-145.06-432.64-189.62-666.59-202.94
				c-138.74-7.9-277.79-6.42-416.6-12.53c-135.32-5.96-270.48-17.97-404.34-38.48c-256.18-39.26-508.81-110.42-738.1-228.69
				c-209.74-108.18-399.98-254.99-542.13-438.93c-144.79-187.36-226.41-413.88-389.14-589.36
				C866.04,632.58,418.78,533.33,9.4,527.71c-51.01-0.7-102,0.13-152.95,2.16c-2.55,0.1-2.05,3.87,0.49,3.77
				c426.61-17.29,905.11,52.78,1227.87,345.3c179.79,162.94,268.08,384.67,400.06,580.07c124.83,184.81,296.89,336.79,491.48,452.93
				c207.55,123.88,439.26,205.8,677.33,256c266.11,56.11,535.7,68.66,806.97,74.38c257.02,5.42,525.68,20.13,753.01,148.73
				c103.68,58.65,186.9,138.57,248.68,237.32c58.34,93.24,102.05,195.72,175.04,280.1c132.5,153.18,345.21,197.15,543.81,184.96
				c249.4-15.31,478.13-119.92,718.27-175.38c62.98-14.54,126.69-25.49,191.26-31.33
				C6091.98,2886.6,6091.74,2884.72,6090.47,2884.84L6090.47,2884.84z"/>
		</g>
	</g>
</g>
</svg>
